<?xml version="1.0" encoding="utf-8"?>
<!-- Generator: Adobe Illustrator 17.0.0, SVG Export Plug-In . SVG Version: 6.00 Build 0)  -->
<!DOCTYPE svg PUBLIC "-//W3C//DTD SVG 1.1//EN" "http://www.w3.org/Graphics/SVG/1.1/DTD/svg11.dtd">
<svg version="1.1" id="Layer_1" xmlns="http://www.w3.org/2000/svg" xmlns:xlink="http://www.w3.org/1999/xlink" x="0px" y="0px"
	 width="185.059px" height="60.337px" viewBox="0 0 185.059 60.337" enable-background="new 0 0 185.059 60.337"
	 xml:space="preserve">
<g>
	<g>
		<g>
			<path fill="#231F20" d="M18.885,19.426c-3.051,0-5.381,0.948-6.993,2.844c-1.61,1.897-2.415,4.527-2.415,7.89
				c0,1.597,0.192,3.058,0.577,4.384c0.385,1.326,0.955,2.459,1.711,3.4c0.755,0.941,1.697,1.675,2.823,2.202
				c1.125,0.528,2.444,0.791,3.956,0.791c0.941,0,1.753-0.036,2.437-0.107c0.685-0.07,1.226-0.164,1.626-0.278V29.905h5.389v14.241
				c-0.742,0.285-1.996,0.599-3.764,0.941c-1.769,0.342-3.807,0.513-6.117,0.513c-2.138,0-4.091-0.342-5.859-1.026
				s-3.272-1.682-4.512-2.994c-1.24-1.311-2.202-2.922-2.886-4.832c-0.685-1.91-1.027-4.105-1.027-6.586
				c0-2.48,0.378-4.675,1.134-6.586c0.755-1.91,1.788-3.528,3.1-4.854c1.311-1.326,2.85-2.331,4.619-3.015
				c1.768-0.684,3.649-1.027,5.645-1.027c1.369,0,2.588,0.093,3.656,0.278c1.07,0.186,1.989,0.392,2.758,0.621
				c0.77,0.228,1.405,0.47,1.903,0.727c0.499,0.256,0.849,0.442,1.049,0.556l-1.626,4.405c-0.855-0.513-1.918-0.948-3.187-1.304
				C21.615,19.605,20.282,19.426,18.885,19.426z"/>
			<path fill="#231F20" d="M32.741,33.924c0-1.967,0.292-3.692,0.877-5.174c0.583-1.482,1.361-2.716,2.33-3.7
				c0.969-0.984,2.081-1.724,3.336-2.224c1.254-0.499,2.537-0.748,3.849-0.748c3.08,0,5.481,0.955,7.206,2.865
				c1.725,1.911,2.588,4.762,2.588,8.553c0,0.286-0.008,0.606-0.022,0.962c-0.014,0.357-0.036,0.678-0.063,0.962H38.088
				c0.142,1.796,0.776,3.186,1.903,4.17c1.125,0.983,2.758,1.475,4.896,1.475c1.254,0,2.401-0.114,3.442-0.342
				c1.041-0.228,1.86-0.47,2.459-0.727l0.685,4.234c-0.285,0.143-0.677,0.293-1.177,0.449c-0.499,0.157-1.068,0.299-1.711,0.428
				c-0.641,0.128-1.333,0.235-2.073,0.321c-0.742,0.086-1.497,0.128-2.267,0.128c-1.968,0-3.678-0.293-5.132-0.877
				c-1.454-0.584-2.651-1.397-3.592-2.438c-0.942-1.041-1.64-2.267-2.096-3.678C32.97,37.154,32.741,35.607,32.741,33.924z
				 M47.753,31.615c0-0.712-0.101-1.39-0.299-2.031c-0.2-0.641-0.492-1.197-0.877-1.668c-0.385-0.47-0.855-0.841-1.41-1.112
				c-0.556-0.27-1.219-0.406-1.989-0.406c-0.799,0-1.497,0.15-2.095,0.45c-0.599,0.299-1.106,0.692-1.519,1.176
				c-0.413,0.485-0.734,1.041-0.962,1.668c-0.228,0.628-0.385,1.269-0.47,1.924H47.753z"/>
			<path fill="#231F20" d="M58.401,23.361c0.999-0.285,2.295-0.556,3.892-0.812c1.596-0.257,3.364-0.385,5.303-0.385
				c1.824,0,3.351,0.25,4.576,0.748c1.226,0.499,2.202,1.198,2.93,2.096c0.726,0.898,1.24,1.982,1.539,3.25
				c0.299,1.269,0.449,2.659,0.449,4.17v12.574h-5.175V33.24c0-1.198-0.079-2.217-0.235-3.058c-0.157-0.841-0.414-1.525-0.77-2.053
				c-0.357-0.527-0.841-0.912-1.454-1.155c-0.613-0.241-1.362-0.363-2.245-0.363c-0.657,0-1.34,0.043-2.053,0.128
				c-0.713,0.085-1.241,0.157-1.583,0.214v18.048h-5.175V23.361z"/>
			<path fill="#231F20" d="M104.333,15.363v4.662h-9.11v24.976h-5.432V20.025h-9.109v-4.662H104.333z"/>
			<path fill="#231F20" d="M104.59,33.924c0-1.967,0.292-3.692,0.877-5.174c0.583-1.482,1.361-2.716,2.33-3.7
				c0.969-0.984,2.081-1.724,3.336-2.224c1.254-0.499,2.537-0.748,3.849-0.748c3.08,0,5.481,0.955,7.206,2.865
				c1.725,1.911,2.588,4.762,2.588,8.553c0,0.286-0.008,0.606-0.022,0.962c-0.014,0.357-0.036,0.678-0.063,0.962h-14.755
				c0.142,1.796,0.776,3.186,1.903,4.17c1.125,0.983,2.758,1.475,4.896,1.475c1.254,0,2.401-0.114,3.442-0.342
				c1.041-0.228,1.86-0.47,2.459-0.727l0.685,4.234c-0.285,0.143-0.677,0.293-1.177,0.449c-0.499,0.157-1.068,0.299-1.711,0.428
				c-0.641,0.128-1.333,0.235-2.073,0.321c-0.742,0.086-1.497,0.128-2.267,0.128c-1.968,0-3.678-0.293-5.132-0.877
				c-1.454-0.584-2.651-1.397-3.592-2.438c-0.942-1.041-1.64-2.267-2.096-3.678C104.818,37.154,104.59,35.607,104.59,33.924z
				 M119.601,31.615c0-0.712-0.101-1.39-0.299-2.031c-0.2-0.641-0.492-1.197-0.877-1.668c-0.385-0.47-0.855-0.841-1.41-1.112
				c-0.556-0.27-1.219-0.406-1.989-0.406c-0.799,0-1.497,0.15-2.095,0.45c-0.599,0.299-1.106,0.692-1.519,1.176
				c-0.413,0.485-0.734,1.041-0.962,1.668c-0.228,0.628-0.385,1.269-0.47,1.924H119.601z"/>
			<path fill="#231F20" d="M142.994,27.296c-0.427-0.143-1.019-0.292-1.774-0.449c-0.756-0.157-1.633-0.235-2.631-0.235
				c-0.57,0-1.175,0.057-1.818,0.171c-0.641,0.114-1.09,0.214-1.347,0.299v17.92h-5.175V23.703c0.998-0.37,2.246-0.72,3.743-1.048
				c1.497-0.328,3.157-0.492,4.983-0.492c0.342,0,0.741,0.021,1.197,0.064c0.456,0.043,0.912,0.1,1.368,0.171
				c0.457,0.072,0.899,0.157,1.326,0.257c0.427,0.1,0.77,0.192,1.027,0.277L142.994,27.296z"/>
			<path fill="#231F20" d="M160.23,27.296c-0.427-0.143-1.019-0.292-1.774-0.449c-0.756-0.157-1.633-0.235-2.631-0.235
				c-0.57,0-1.175,0.057-1.818,0.171c-0.641,0.114-1.09,0.214-1.347,0.299v17.92h-5.175V23.703c0.999-0.37,2.246-0.72,3.743-1.048
				c1.497-0.328,3.157-0.492,4.983-0.492c0.342,0,0.741,0.021,1.197,0.064c0.456,0.043,0.912,0.1,1.368,0.171
				c0.457,0.072,0.899,0.157,1.326,0.257c0.427,0.1,0.77,0.192,1.027,0.277L160.23,27.296z"/>
			<path fill="#231F20" d="M172.162,22.078c1.711,0,3.151,0.214,4.32,0.641s2.102,1.026,2.801,1.796
				c0.698,0.77,1.197,1.704,1.497,2.802c0.299,1.098,0.449,2.302,0.449,3.614v13.557c-0.799,0.172-2.002,0.379-3.614,0.621
				c-1.61,0.242-3.428,0.363-5.452,0.363c-1.34,0-2.566-0.128-3.678-0.385c-1.111-0.257-2.059-0.67-2.844-1.24
				c-0.784-0.57-1.397-1.311-1.839-2.224c-0.442-0.912-0.663-2.039-0.663-3.379c0-1.283,0.249-2.366,0.748-3.25
				c0.498-0.883,1.177-1.604,2.032-2.16c0.854-0.556,1.845-0.955,2.971-1.197c1.126-0.242,2.303-0.364,3.529-0.364
				c0.57,0,1.169,0.036,1.796,0.107c0.627,0.072,1.297,0.192,2.01,0.363v-0.855c0-0.599-0.071-1.168-0.214-1.71
				c-0.142-0.541-0.392-1.019-0.748-1.433c-0.356-0.413-0.827-0.734-1.411-0.962c-0.584-0.228-1.319-0.342-2.202-0.342
				c-1.197,0-2.295,0.085-3.293,0.256c-0.999,0.172-1.811,0.371-2.437,0.599l-0.642-4.191c0.655-0.228,1.61-0.456,2.866-0.684
				C169.396,22.192,170.736,22.078,172.162,22.078z M172.59,41.366c1.596,0,2.808-0.086,3.635-0.257v-5.731
				c-0.285-0.085-0.699-0.171-1.24-0.256c-0.542-0.086-1.141-0.128-1.796-0.128c-0.571,0-1.148,0.043-1.733,0.128
				c-0.584,0.085-1.112,0.243-1.582,0.47c-0.471,0.228-0.849,0.55-1.134,0.962c-0.285,0.413-0.427,0.934-0.427,1.561
				c0,1.226,0.385,2.075,1.155,2.545C170.237,41.131,171.278,41.366,172.59,41.366z"/>
		</g>
	</g>
	<path fill="#6EC829" d="M171.473,12.903c0,0-69.936-17.153-131.529,1.979C39.944,14.883,95.175-14.428,171.473,12.903z"/>
	<g>
		<path fill="#231F20" d="M84.617,56.174h-3.773v2.832h-0.823v-6.333h0.823v2.733h3.773v-2.733h0.823v6.333h-0.823V56.174z"/>
		<path fill="#231F20" d="M88.143,52.673h4.56v0.769h-3.737v1.973h3.482v0.751h-3.482v2.072h3.817v0.769h-4.64V52.673z"/>
		<path fill="#231F20" d="M97.388,52.656h0.652l2.777,6.35h-0.859l-0.705-1.602H96.15l-0.697,1.602h-0.842L97.388,52.656z
			 M96.457,56.681h2.488l-1.248-2.878L96.457,56.681z"/>
		<path fill="#231F20" d="M102.86,52.673h0.823v5.564h3.754v0.769h-4.577V52.673z"/>
		<path fill="#231F20" d="M107.886,52.673h5.228v0.769h-2.207v5.564h-0.823v-5.564h-2.198V52.673z"/>
		<path fill="#231F20" d="M119.763,56.174h-3.773v2.832h-0.823v-6.333h0.823v2.733h3.773v-2.733h0.823v6.333h-0.823V56.174z"/>
		<path fill="#231F20" d="M127.131,54.33c0-0.941,0.905-1.737,2.343-1.737c0.985,0,1.827,0.307,2.307,0.922l-0.535,0.533
			c-0.379-0.379-0.967-0.678-1.79-0.678c-0.606,0-1.476,0.236-1.476,0.941c0,1.547,3.908,0.687,3.908,2.95
			c0,1.085-0.985,1.827-2.297,1.827c-1.122,0-2.162-0.57-2.596-1.221l0.533-0.579c0.408,0.524,1.158,1.021,2.145,1.021
			c0.722,0,1.366-0.362,1.366-0.985C131.04,55.749,127.131,56.671,127.131,54.33z"/>
		<path fill="#231F20" d="M139.66,57.974c-0.48,0.669-1.43,1.114-2.461,1.114c-2,0-3.265-1.276-3.265-3.248
			c0-1.819,1.238-3.247,3.202-3.247c1.139,0,2.008,0.478,2.434,1.049l-0.535,0.516c-0.488-0.488-1.049-0.779-1.882-0.779
			c-1.474,0-2.36,1.014-2.36,2.461c0,1.484,0.985,2.461,2.461,2.461c0.876,0,1.501-0.362,1.935-0.851L139.66,57.974z"/>
		<path fill="#231F20" d="M141.865,52.673h0.823v6.333h-0.823V52.673z"/>
		<path fill="#231F20" d="M145.388,52.673h4.56v0.769h-3.737v1.973h3.482v0.751h-3.482v2.072h3.817v0.769h-4.64V52.673z"/>
		<path fill="#231F20" d="M157.191,59.006l-3.88-4.832v4.832h-0.796v-6.333h0.651l3.872,4.849v-4.849h0.798v6.333H157.191z"/>
		<path fill="#231F20" d="M165.922,57.974c-0.48,0.669-1.43,1.114-2.461,1.114c-2,0-3.265-1.276-3.265-3.248
			c0-1.819,1.238-3.247,3.202-3.247c1.139,0,2.008,0.478,2.434,1.049l-0.535,0.516c-0.488-0.488-1.049-0.779-1.882-0.779
			c-1.474,0-2.36,1.014-2.36,2.461c0,1.484,0.985,2.461,2.461,2.461c0.876,0,1.501-0.362,1.935-0.851L165.922,57.974z"/>
		<path fill="#231F20" d="M168.128,52.673h4.56v0.769h-3.737v1.973h3.482v0.751h-3.482v2.072h3.817v0.769h-4.64V52.673z"/>
		<path fill="#231F20" d="M175.02,54.33c0-0.941,0.905-1.737,2.343-1.737c0.985,0,1.827,0.307,2.307,0.922l-0.535,0.533
			c-0.379-0.379-0.967-0.678-1.79-0.678c-0.606,0-1.476,0.236-1.476,0.941c0,1.547,3.908,0.687,3.908,2.95
			c0,1.085-0.985,1.827-2.297,1.827c-1.122,0-2.162-0.57-2.596-1.221l0.533-0.579c0.408,0.524,1.158,1.021,2.145,1.021
			c0.722,0,1.366-0.362,1.366-0.985C178.929,55.749,175.02,56.671,175.02,54.33z"/>
	</g>
</g>
</svg>
